<svg width="32" height="32" viewBox="0 0 32 32" fill="none" xmlns="http://www.w3.org/2000/svg">
  <!-- Background -->
  <rect width="32" height="32" rx="6" fill="#0A0A0A"/>
  
  <!-- Circuit pattern -->
  <path d="M8 8H12V12" stroke="#EC4899" stroke-width="1.5" stroke-linecap="round"/>
  <path d="M24 8H20V12" stroke="#06B6D4" stroke-linecap="round"/>
  <path d="M8 24H12V20" stroke="#A855F7" stroke-width="1.5" stroke-linecap="round"/>
  <path d="M24 24H20V20" stroke="#EC4899" stroke-width="1.5" stroke-linecap="round"/>
  
  <!-- Center 3D element -->
  <circle cx="16" cy="16" r="5" fill="url(#gradient1)" opacity="0.9"/>
  <circle cx="16" cy="16" r="3" fill="url(#gradient2)"/>
  
  <!-- Connecting lines -->
  <line x1="12" y1="12" x2="14" y2="14" stroke="#06B6D4" stroke-width="1" opacity="0.6"/>
  <line x1="20" y1="12" x2="18" y2="14" stroke="#EC4899" stroke-width="1" opacity="0.6"/>
  <line x1="12" y1="20" x2="14" y2="18" stroke="#A855F7" stroke-width="1" opacity="0.6"/>
  <line x1="20" y1="20" x2="18" y2="18" stroke="#06B6D4" stroke-width="1" opacity="0.6"/>
  
  <!-- Corner dots -->
  <circle cx="8" cy="8" r="1.5" fill="#EC4899"/>
  <circle cx="24" cy="8" r="1.5" fill="#06B6D4"/>
  <circle cx="8" cy="24" r="1.5" fill="#A855F7"/>
  <circle cx="24" cy="24" r="1.5" fill="#EC4899"/>
  
  <!-- Gradients -->
  <defs>
    <linearGradient id="gradient1" x1="11" y1="11" x2="21" y2="21" gradientUnits="userSpaceOnUse">
      <stop offset="0%" stop-color="#EC4899"/>
      <stop offset="50%" stop-color="#A855F7"/>
      <stop offset="100%" stop-color="#06B6D4"/>
    </linearGradient>
    <linearGradient id="gradient2" x1="13" y1="13" x2="19" y2="19" gradientUnits="userSpaceOnUse">
      <stop offset="0%" stop-color="#06B6D4"/>
      <stop offset="100%" stop-color="#EC4899"/>
    </linearGradient>
  </defs>
</svg>
